HIERARCHY
ROOT hips
{
  OFFSET 0 10.6860622 2.3727825e-15
  CHANNELS 6 Xposition Yposition Zposition Yrotation Xrotation Zrotation
  JOINT leftUpperLeg
  {
    OFFSET 0.6642549969 -0.9402397400000004 0
    CHANNELS 3 Yrotation Xrotation Zrotation
    JOINT leftLowerLeg
    {
      OFFSET 0 -3.997221335632195 0
      CHANNELS 3 Yrotation Xrotation Zrotation
      JOINT leftFoot
      {
        OFFSET -0.13777839790000004 -4.6145792000000005 -0.22186036399999998
        CHANNELS 3 Yrotation Xrotation Zrotation
        JOINT leftToes
        {
          OFFSET -0.03777410834999995 -0.9130806927000008 0.85230013
          CHANNELS 3 Yrotation Xrotation Zrotation
          End Site
          {
            OFFSET -0.03777410834999995 -0.9130806927000008 0.85230013
          }
        }
      }
    }
  }
  JOINT rightUpperLeg
  {
    OFFSET -0.6642778626 -0.9402397400000004 0
    CHANNELS 3 Yrotation Xrotation Zrotation
    JOINT rightLowerLeg
    {
      OFFSET 0 -3.997221452859387 0
      CHANNELS 3 Yrotation Xrotation Zrotation
      JOINT rightFoot
      {
        OFFSET 0.1377926176 -4.6145792000000005 -0.22185782299999995
        CHANNELS 3 Yrotation Xrotation Zrotation
        JOINT rightToes
        {
          OFFSET 0.037780746850000047 -0.9130806927000008 0.85230167
          CHANNELS 3 Yrotation Xrotation Zrotation
          End Site
          {
            OFFSET 0.037780746850000047 -0.9130806927000008 0.85230167
          }
        }
      }
    }
  }
  JOINT spine
  {
    OFFSET 0 0.13988381660000015 0
    CHANNELS 3 Yrotation Xrotation Zrotation
    JOINT chest
    {
      OFFSET 0 0.6191039003973773 0
      CHANNELS 3 Yrotation Xrotation Zrotation
      JOINT upperChest
      {
        OFFSET 0 0.9855186130586943 0
        CHANNELS 3 Yrotation Xrotation Zrotation
        JOINT leftShoulder
        {
          OFFSET 0.1807663869 1.5087829790000005 0
          CHANNELS 3 Yrotation Xrotation Zrotation
          JOINT leftUpperArm
          {
            OFFSET 0.5985063006419806 0 0
            CHANNELS 3 Yrotation Xrotation Zrotation
            JOINT leftLowerArm
            {
              OFFSET 2.2993332369501065 0 0
              CHANNELS 3 Yrotation Xrotation Zrotation
              JOINT leftHand
              {
                OFFSET 2.395047042602395 0 0
                CHANNELS 3 Yrotation Xrotation Zrotation
                JOINT leftIndexProximal
                {
                  OFFSET 0.5766295810000004 0.04556643899499946 0.17265095988184
                  CHANNELS 3 Yrotation Xrotation Zrotation
                  JOINT leftIndexIntermediate
                  {
                    OFFSET 0.2957229000000008 -0.019352197700001517 -0.007932640616999987
                    CHANNELS 3 Yrotation Xrotation Zrotation
                    JOINT leftIndexDistal
                    {
                      OFFSET 0.19008243099999922 -0.012484908149998475 -0.002786250786000012
                      CHANNELS 3 Yrotation Xrotation Zrotation
                      End Site
                      {
                        OFFSET 0.19008243099999922 -0.012484908149998475 -0.002786250786000012
                      }
                    }
                  }
                }
                JOINT leftMiddleProximal
                {
                  OFFSET 0.5834975091000001 0.0524350405149987 0.02204081888183999
                  CHANNELS 3 Yrotation Xrotation Zrotation
                  JOINT leftMiddleIntermediate
                  {
                    OFFSET 0.33880573540000003 -0.019871473270000717 -0.00000971183179999946
                    CHANNELS 3 Yrotation Xrotation Zrotation
                    JOINT leftMiddleDistal
                    {
                      OFFSET 0.20676022730000088 -0.012221336379999448 0.0001471936708000235
                      CHANNELS 3 Yrotation Xrotation Zrotation
                      End Site
                      {
                        OFFSET 0.20676022730000088 -0.012221336379999448 0.0001471936708000235
                      }
                    }
                  }
                }
                JOINT leftLittleProximal
                {
                  OFFSET 0.5344154683999995 -0.012880921405001189 -0.24414037221816004
                  CHANNELS 3 Yrotation Xrotation Zrotation
                  JOINT leftLittleIntermediate
                  {
                    OFFSET 0.21758961730000093 -0.011650919939999227 0.011893592810000034
                    CHANNELS 3 Yrotation Xrotation Zrotation
                    JOINT leftLittleDistal
                    {
                      OFFSET 0.1475273964999999 -0.008152365682999818 0.006001092492999946
                      CHANNELS 3 Yrotation Xrotation Zrotation
                      End Site
                      {
                        OFFSET 0.1475273964999999 -0.008152365682999818 0.006001092492999946
                      }
                    }
                  }
                }
                JOINT leftRingProximal
                {
                  OFFSET 0.5799399463000003 0.026911854694997794 -0.12150566991816003
                  CHANNELS 3 Yrotation Xrotation Zrotation
                  JOINT leftRingIntermediate
                  {
                    OFFSET 0.26167887460000006 -0.013480186499999602 0.010996293000000053
                    CHANNELS 3 Yrotation Xrotation Zrotation
                    JOINT leftRingDistal
                    {
                      OFFSET 0.17667108799999987 -0.008990287899999228 0.0055541023999999065
                      CHANNELS 3 Yrotation Xrotation Zrotation
                      End Site
                      {
                        OFFSET 0.17667108799999987 -0.008990287899999228 0.0055541023999999065
                      }
                    }
                  }
                }
                JOINT leftThumbProximal
                {
                  OFFSET 0.11018806699999972 -0.09448718900500053 0.17047963138184
                  CHANNELS 3 Yrotation Xrotation Zrotation
                  JOINT leftThumbIntermediate
                  {
                    OFFSET 0.31062601459999983 -0.08126270900000132 0.15443142000000007
                    CHANNELS 3 Yrotation Xrotation Zrotation
                    JOINT leftThumbDistal
                    {
                      OFFSET 0.21627175790000086 -0.08833193599999878 0.018771167799999988
                      CHANNELS 3 Yrotation Xrotation Zrotation
                      End Site
                      {
                        OFFSET 0.21627175790000086 -0.08833193599999878 0.018771167799999988
                      }
                    }
                  }
                }
              }
            }
          }
        }
        JOINT neck
        {
          OFFSET 0 1.5463305265074576 0
          CHANNELS 3 Yrotation Xrotation Zrotation
          JOINT head
          {
            OFFSET 0 0.8456443600000344 0
            CHANNELS 3 Yrotation Xrotation Zrotation
            JOINT leftEye
            {
              OFFSET 0.30408573140000006 0.5104519199999995 0.1276382305
              CHANNELS 3 Yrotation Xrotation Zrotation
              End Site
              {
                OFFSET 0.30408573140000006 0.5104519199999995 0.1276382305
              }
            }
            JOINT rightEye
            {
              OFFSET -0.30409491089999996 0.5104519199999995 0.1276379445
              CHANNELS 3 Yrotation Xrotation Zrotation
              End Site
              {
                OFFSET -0.30409491089999996 0.5104519199999995 0.1276379445
              }
            }
            JOINT jaw
            {
              OFFSET -3.155239131000001e-7 -0.11984121820000082 0.60178107
              CHANNELS 3 Yrotation Xrotation Zrotation
              End Site
              {
                OFFSET -3.155239131000001e-7 -0.11984121820000082 0.60178107
              }
            }
          }
        }
        JOINT rightShoulder
        {
          OFFSET -0.1807303465 1.5087829790000005 0
          CHANNELS 3 Yrotation Xrotation Zrotation
          JOINT rightUpperArm
          {
            OFFSET -0.5985063796536958 0 0
            CHANNELS 3 Yrotation Xrotation Zrotation
            JOINT rightLowerArm
            {
              OFFSET -2.2993322059002854 0 0
              CHANNELS 3 Yrotation Xrotation Zrotation
              JOINT rightHand
              {
                OFFSET -2.395045314457259 0 0
                CHANNELS 3 Yrotation Xrotation Zrotation
                JOINT rightIndexProximal
                {
                  OFFSET -0.5764487688300002 0.0441371204405987 0.17361932004999997
                  CHANNELS 3 Yrotation Xrotation Zrotation
                  JOINT rightIndexIntermediate
                  {
                    OFFSET -0.29573011380000047 -0.01934826376999843 -0.007698921482999974
                    CHANNELS 3 Yrotation Xrotation Zrotation
                    JOINT rightIndexDistal
                    {
                      OFFSET -0.19008373999999884 -0.012503266380000655 -0.0026365778999999897
                      CHANNELS 3 Yrotation Xrotation Zrotation
                      End Site
                      {
                        OFFSET -0.19008373999999884 -0.012503266380000655 -0.0026365778999999897
                      }
                    }
                  }
                }
                JOINT rightMiddleProximal
                {
                  OFFSET -0.5834852037300005 0.05211639405060153 0.02307162440000001
                  CHANNELS 3 Yrotation Xrotation Zrotation
                  JOINT rightMiddleIntermediate
                  {
                    OFFSET -0.33880114510000003 -0.019952774050000954 0.0002455003561999819
                    CHANNELS 3 Yrotation Xrotation Zrotation
                    JOINT rightMiddleDistal
                    {
                      OFFSET -0.20675694929999955 -0.012273788999999091 0.00030209124000002766
                      CHANNELS 3 Yrotation Xrotation Zrotation
                      End Site
                      {
                        OFFSET -0.20675694929999955 -0.012273788999999091 0.00030209124000002766
                      }
                    }
                  }
                }
                JOINT rightLittleProximal
                {
                  OFFSET -0.5346811737299992 -0.011214256288399227 -0.24363941305000003
                  CHANNELS 3 Yrotation Xrotation Zrotation
                  JOINT rightLittleIntermediate
                  {
                    OFFSET -0.21757715980000092 -0.011771559690000988 0.01201554387
                    CHANNELS 3 Yrotation Xrotation Zrotation
                    JOINT rightLittleDistal
                    {
                      OFFSET -0.1475201849000004 -0.00822055339600003 0.006082065407000015
                      CHANNELS 3 Yrotation Xrotation Zrotation
                      End Site
                      {
                        OFFSET -0.1475201849000004 -0.00822055339600003 0.006082065407000015
                      }
                    }
                  }
                }
                JOINT rightRingProximal
                {
                  OFFSET -0.5800810755299999 0.027657985680600072 -0.12066365025000003
                  CHANNELS 3 Yrotation Xrotation Zrotation
                  JOINT rightRingIntermediate
                  {
                    OFFSET -0.26166445029999974 -0.013623118409999302 0.011164098990000045
                    CHANNELS 3 Yrotation Xrotation Zrotation
                    JOINT rightRingDistal
                    {
                      OFFSET -0.17666387530000027 -0.009072900100000503 0.005668185599999959
                      CHANNELS 3 Yrotation Xrotation Zrotation
                      End Site
                      {
                        OFFSET -0.17666387530000027 -0.009072900100000503 0.005668185599999959
                      }
                    }
                  }
                }
                JOINT rightThumbProximal
                {
                  OFFSET -0.10997596379000074 -0.09577489355940072 0.16989765924999997
                  CHANNELS 3 Yrotation Xrotation Zrotation
                  JOINT rightThumbIntermediate
                  {
                    OFFSET -0.31036620999999986 -0.08229339117999834 0.15440884469999996
                    CHANNELS 3 Yrotation Xrotation Zrotation
                    JOINT rightThumbDistal
                    {
                      OFFSET -0.21631306399999906 -0.08825326400000111 0.018656797720000014
                      CHANNELS 3 Yrotation Xrotation Zrotation
                      End Site
                      {
                        OFFSET -0.21631306399999906 -0.08825326400000111 0.018656797720000014
                      }
                    }
                  }
                }
              }
            }
          }
        }
      }
    }
  }
}
MOTION
Frames: 7
Frame Time: 0.03333333333333333
4.025256836853109 -7.87396335889518 -0.3269867326046698 89.32062855958401 89.74282935201698 -90.41471554501912 25.484802578942503 -39.76450753846611 12.389113373219603 -175.1214739334573 60.28004082587226 -152.4741399468053 2.9840980544556177 19.66091599170625 4.7235777146258116 0 0 0 -25.524144223365226 -39.76735987809571 -12.352182674202467 175.1312442482972 60.281825018688465 152.48238070637615 -2.9950642068165987 19.63943936643853 -4.710557275192164 0 0 0 -0.8009400574719677 38.65146966753403 -1.3785730941540257 -0.813122391185127 -21.77656156916095 -0.16168745238679474 0 0 0 -7.808851333996934 10.103167274538206 -14.487773814717539 -10.92261593779425 -62.316416431250815 -59.32692507726431 -100.22223188150663 46.487585888967274 38.847710111362325 -13.402842205134922 12.110393027080965 -1.002854736822622 0 0 0 0 0 0 0 0 0 0 0 0 0 0 0 0 0 0 0 0 0 0 0 0 0 0 0 0 0 0 0 0 0 0 0 0 0 0 0 0 0 0 0 0 0 0 -25.65487845142438 0 -0.0014712082040242308 -15.971569751057482 -0.05446625894758402 0 0 0 0 0 0 0 0 0 8.723868891403942 10.076952244572654 14.194848037880798 11.067060967897158 -62.2029064899896 59.626387793055144 100.54923644270994 46.68562705932349 -38.65216218148531 13.132461525519679 12.830146344465382 1.074447394871073 0 0 0 0 0 0 0 0 0 0 0 0 0 0 0 0 0 0 0 0 0 0 0 0 0 0 0 0 0 0 0 0 0 0 0 0 0 0 0 0 0 0 0 0 0
4.025256836853109 -7.87396335889518 -0.32424577653395653 89.32062855958401 89.74282935201698 -90.41471554501912 25.484804584201033 -39.76450753846611 12.389112288383265 -175.1413690885696 60.380216575222725 -152.48241743632013 2.9840980544556177 19.66091599170625 4.7235777146258116 0 0 0 -25.524142308919785 -39.767355435107206 -12.352182808792296 175.152032888399 60.38150181614765 152.4901174269842 -2.9950642068165987 19.63943936643853 -4.710557275192164 0 0 0 -0.8009400574719677 38.65146966753403 -1.3785730941540257 -0.813122391185127 -21.77656156916095 -0.16168745238679474 0 0 0 -7.68689706059363 10.031025143870336 -14.404595564226126 -10.922618153757847 -62.316416431250815 -59.32691904927507 -100.22223188150663 46.487585888967274 38.847710111362325 -13.264390845737084 12.067673056744306 -1.0480591583544796 0 0 0 0 0 0 0 0 0 0 0 0 0 0 0 0 0 0 0 0 0 0 0 0 0 0 0 0 0 0 0 0 0 0 0 0 0 0 0 0 0 0 0 0 0 0 -25.829802552383452 0 -0.0014619229103885237 -16.599223316096012 -0.054438361568604515 0 0 0 0 0 0 0 0 0 8.58687589457953 10.004707595609698 14.114014882741277 11.067060967897158 -62.2029064899896 59.626387793055144 100.54923277211788 46.68562705932349 -38.65216218148531 12.997328153917275 12.780000162170476 1.1177016914788076 0 0 0 0 0 0 0 0 0 0 0 0 0 0 0 0 0 0 0 0 0 0 0 0 0 0 0 0 0 0 0 0 0 0 0 0 0 0 0 0 0 0 0 0 0
4.025256836853109 -7.87396335889518 -0.3187638643925299 89.32062855958401 89.74282935201698 -90.41471554501912 25.484804584201033 -39.76450753846611 12.389112288383265 -175.18143581225004 60.58058056787195 -152.49926647368093 2.9840980544556177 19.66091599170625 4.7235777146258116 0 0 0 -25.524142308919785 -39.767355435107206 -12.352182808792296 175.19389008252705 60.58087257705404 152.50589100973156 -2.9950642068165987 19.63943936643853 -4.710557275192164 0 0 0 -0.8009400574719677 38.65146966753403 -1.3785730941540257 -0.813122391185127 -21.77656156916095 -0.16168745238679474 0 0 0 -7.443359135636653 9.886200498358805 -14.238741756840886 -10.922618153757847 -62.316416431250815 -59.32691904927507 -100.22223188150663 46.487585888967274 38.847710111362325 -12.987407024616193 11.982539790289728 -1.138774057158118 0 0 0 0 0 0 0 0 0 0 0 0 0 0 0 0 0 0 0 0 0 0 0 0 0 0 0 0 0 0 0 0 0 0 0 0 0 0 0 0 0 0 0 0 0 0 -26.179701480629017 0 -0.0014445939003108318 -17.85712293003363 -0.05438202356582295 0 0 0 0 0 0 0 0 0 8.313248862664903 9.85962597373586 13.952905782386033 11.067060967897158 -62.2029064899896 59.626387793055144 100.54923277211788 46.68562705932349 -38.65216218148531 12.726986914498749 12.679989646341367 1.2045605287039125 0 0 0 0 0 0 0 0 0 0 0 0 0 0 0 0 0 0 0 0 0 0 0 0 0 0 0 0 0 0 0 0 0 0 0 0 0 0 0 0 0 0 0 0 0
4.025256836853109 -7.87396335889518 -0.31602290832181656 89.32062855958401 89.74282935201698 -90.41471554501912 25.484804584201033 -39.76450753846611 12.389112288383265 -175.20160832558244 60.68076253098676 -152.5078370401836 2.9840980544556177 19.66091599170625 4.7235777146258116 0 0 0 -25.524142308919785 -39.767355435107206 -12.352182808792296 175.21495919703742 60.680553305568196 152.5139288365035 -2.9950642068165987 19.63943936643853 -4.710557275192164 0 0 0 -0.8009400574719677 38.65146966753403 -1.3785730941540257 -0.813122391185127 -21.77656156916095 -0.16168745238679474 0 0 0 -7.3217751780775915 9.81351885846484 -14.156065957573505 -10.922618153757847 -62.316416431250815 -59.32691904927507 -100.22223188150663 46.487585888967274 38.847710111362325 -12.848878942296835 11.940128095471033 -1.184283829614935 0 0 0 0 0 0 0 0 0 0 0 0 0 0 0 0 0 0 0 0 0 0 0 0 0 0 0 0 0 0 0 0 0 0 0 0 0 0 0 0 0 0 0 0 0 0 -26.354677825972622 0 -0.0014360208358649585 -18.487217119419988 -0.054354220326076834 0 0 0 0 0 0 0 0 0 8.176620169058067 9.786791630029558 13.872632149145943 11.067060967897158 -62.2029064899896 59.626387793055144 100.54923553128712 46.68562208105823 -38.65215907210647 12.591781678505582 12.630128625343252 1.2481630939872872 0 0 0 0 0 0 0 0 0 0 0 0 0 0 0 0 0 0 0 0 0 0 0 0 0 0 0 0 0 0 0 0 0 0 0 0 0 0 0 0 0 0 0 0 0
4.025256836853109 -7.87396335889518 -0.3132819522511033 89.32062855958401 89.74282935201698 -90.41471554501912 25.484804584201033 -39.76450753846611 12.389112288383265 -175.22187462747073 60.78093555430309 -152.51650521478533 2.9840980544556177 19.66091599170625 4.7235777146258116 0 0 0 -25.524142308919785 -39.767355435107206 -12.352182808792296 175.23612228907845 60.78022896679955 152.52206387568958 -2.9950642068165987 19.63943936643853 -4.710557275192164 0 0 0 -0.8009400574719677 38.65146966753403 -1.3785730941540257 -0.813122391185127 -21.77656156916095 -0.16168745238679474 0 0 0 -7.200324814824155 9.740665184136356 -14.073564685760747 -10.922618153757847 -62.316416431250815 -59.32691904927507 -100.22223188150663 46.487585888967274 38.847710111362325 -12.710338700420783 11.89782512296619 -1.2298911629579699 0 0 0 0 0 0 0 0 0 0 0 0 0 0 0 0 0 0 0 0 0 0 0 0 0 0 0 0 0 0 0 0 0 0 0 0 0 0 0 0 0 0 0 0 0 0 -26.529654024301692 0 -0.001427739222940796 -19.117312684451836 -0.0543264130554887 0 0 0 0 0 0 0 0 0 8.040124288373702 9.713769698146889 13.792552935527919 11.067060967897158 -62.2029064899896 59.626387793055144 100.5492392018788 46.68562208105823 -38.65215596272806 12.456564246010627 12.580368302112376 1.2918774797943366 0 0 0 0 0 0 0 0 0 0 0 0 0 0 0 0 0 0 0 0 0 0 0 0 0 0 0 0 0 0 0 0 0 0 0 0 0 0 0 0 0 0 0 0 0
4.025256836853109 -7.87396335889518 -0.3078000401096767 89.32062855958401 89.74282935201698 -90.41471554501912 25.484804584201033 -39.76450753846611 12.38910916550825 -175.26269596907025 60.98130495791839 -152.53415220133067 2.9840980544556177 19.66091599170625 4.7235777146258116 0 0 0 -25.524142308919785 -39.767355435107206 -12.352182808792296 175.27873428954666 60.979594270946855 152.5386324786331 -2.9950642068165987 19.63943936643853 -4.710557275192164 0 0 0 -0.8009400574719677 38.65146966753403 -1.3785730941540257 -0.813122391185127 -21.77656156916095 -0.16168745238679474 0 0 0 -6.9577988060305955 9.594428723638842 -13.909071717170582 -10.922618153757847 -62.316416431250815 -59.32691904927507 -100.22223188150663 46.487585888967274 38.847710111362325 -12.433190767461701 11.813535455189106 -1.32140877666215 0 0 0 0 0 0 0 0 0 0 0 0 0 0 0 0 0 0 0 0 0 0 0 0 0 0 0 0 0 0 0 0 0 0 0 0 0 0 0 0 0 0 0 0 0 0 -26.879658472483055 0 -0.0014124066323894233 -20.379502278525628 -0.05426915091585245 0 0 0 0 0 0 0 0 0 7.767501782123775 9.567148367975985 13.63295878000589 11.067060967897158 -62.2029064899896 59.626387793055144 100.54923277211788 46.68562705932349 -38.65216218148531 12.186061717204442 12.481142369380171 1.3796517932450456 0 0 0 0 0 0 0 0 0 0 0 0 0 0 0 0 0 0 0 0 0 0 0 0 0 0 0 0 0 0 0 0 0 0 0 0 0 0 0 0 0 0 0 0 0
4.025256836853109 -7.87396335889518 -0.30505908403896337 89.32062855958401 89.74282935201698 -90.41471554501912 25.484804584201033 -39.76450753846611 12.389111203546918 -175.2832523450487 61.08149503994782 -152.54312537489903 2.9840980544556177 19.66091599170625 4.7235777146258116 0 0 0 -25.524142308919785 -39.767355435107206 -12.352182808792296 175.30018699974426 61.079270485333986 152.54707458603156 -2.9950642068165987 19.63943936643853 -4.710557275192164 0 0 0 -0.8009400574719677 38.65146966753403 -1.3785730941540257 -0.813122391185127 -21.77656156916095 -0.16168745238679474 0 0 0 -6.836724987675906 9.521047660761903 -13.827081443875905 -10.922618153757847 -62.316416431250815 -59.32691904927507 -100.22223188150663 46.487585888967274 38.847710111362325 -12.294583160505791 11.771548616679476 -1.3673166128554224 0 0 0 0 0 0 0 0 0 0 0 0 0 0 0 0 0 0 0 0 0 0 0 0 0 0 0 0 0 0 0 0 0 0 0 0 0 0 0 0 0 0 0 0 0 0 -27.05468057135418 0 -0.0014053548830263729 -21.011442865951828 -0.05424117088097367 0 0 0 0 0 0 0 0 0 7.631375539028404 9.493548980654028 13.553443628214884 11.067060967897158 -62.2029064899896 59.626387793055144 100.54923553128712 46.68562208105823 -38.65215907210647 12.050778389207082 12.431674823567487 1.4237101612986267 0 0 0 0 0 0 0 0 0 0 0 0 0 0 0 0 0 0 0 0 0 0 0 0 0 0 0 0 0 0 0 0 0 0 0 0 0 0 0 0 0 0 0 0 0
